<svg xmlns="http://www.w3.org/2000/svg" viewBox="0 0 500 500" width="100%" height="100%">
  <defs>
    <linearGradient id="grad1" x1="0%" y1="0%" x2="100%" y2="100%">
      <stop offset="0%" stop-color="#7B2CBF" />
      <stop offset="100%" stop-color="#3C096C" />
    </linearGradient>

    <linearGradient id="grad2" x1="0%" y1="0%" x2="100%" y2="100%">
      <stop offset="0%" stop-color="#5A189A" />
      <stop offset="100%" stop-color="#1A75FF" />
    </linearGradient>

    <linearGradient id="grad3" x1="0%" y1="0%" x2="100%" y2="100%">
      <stop offset="0%" stop-color="#0052CC" />
      <stop offset="100%" stop-color="#00A3FF" />
    </linearGradient>

    <linearGradient id="grad4" x1="0%" y1="0%" x2="100%" y2="100%">
      <stop offset="0%" stop-color="#00A3FF" />
      <stop offset="100%" stop-color="#00F5D4" />
    </linearGradient>

    <radialGradient id="glow" cx="50%" cy="50%" r="50%">
      <stop offset="0%" stop-color="#38B6FF" stop-opacity="1" />
      <stop offset="30%" stop-color="#00F5D4" stop-opacity="0.5" />
      <stop offset="100%" stop-color="#000000" stop-opacity="0" />
    </radialGradient>
  </defs>

  <g transform="translate(10, 0)">
    <path d="M 50,110 L 50,90 A 20,20 0 0 1 70,70 C 160,70 300,150 445,246 C 300,180 160,130 70,130 A 20,20 0 0 1 50,110 Z" fill="url(#grad1)" />

    <path d="M 50,205 L 50,185 A 20,20 0 0 1 70,165 C 160,165 300,210 445,248 C 300,225 160,225 70,225 A 20,20 0 0 1 50,205 Z" fill="url(#grad2)" />

    <path d="M 50,300 L 50,280 A 20,20 0 0 1 70,260 C 160,260 300,250 445,252 C 300,270 160,320 70,320 A 20,20 0 0 1 50,300 Z" fill="url(#grad3)" />

    <path d="M 50,395 L 50,375 A 20,20 0 0 1 70,355 C 160,355 300,290 445,254 C 300,340 160,415 70,415 A 20,20 0 0 1 50,395 Z" fill="url(#grad4)" />

    <circle cx="445" cy="250" r="25" fill="url(#glow)" style="mix-blend-mode: screen;" />
    <circle cx="445" cy="250" r="4" fill="#FFFFFF" />
  </g>
</svg>
